# xmcd
#
# Track frame offsets: 
#        150
#        18249
#        37238
#        62445
#        81153
#        100584
#        118096
#        139215
#        154180
#        189199
#        203992
#        222490
#
# Disc length: 3281 seconds
#
# Revision: 0
# Processed by: cddbd v1.5.2PL0 Copyright (c) Steve Scherf et al.
# Submitted via: ExactAudioCopy v1.3
#
DISCID=a50ccf0c
DTITLE=Dr. Wu' and Friends - Texas Blues Project Vol.1
DYEAR=2007
DGENRE=Texas Blues, Blues Rock
TTITLE0=I Don't Need No Woman Like You
TTITLE1=Stop Your Lyin'
TTITLE2=Jacksboro Highway (Live)
TTITLE3=I Don't Care Blues
TTITLE4=Sister Blue
TTITLE5=I Wanna' Love You
TTITLE6=When I Get To Heaven
TTITLE7=The Fool Around
TTITLE8=Storm Watch Warning
TTITLE9=Come Back Baby
TTITLE10=High Maintenance Baby
TTITLE11=Nothin' Like Texas Blues
EXTD=
EXTT0=
EXTT1=
EXTT2=
EXTT3=
EXTT4=
EXTT5=
EXTT6=
EXTT7=
EXTT8=
EXTT9=
EXTT10=
EXTT11=
PLAYORDER=
